Coordinates
version=1
nRows=21
nColumns=12
inDegrees=yes

Units are S.I. units (second, meters, Newtons, ...)
Angles are in degrees

endheader
time	SC_y	SC_z	SC_x	AC_y	AC_z	AC_x	GH_y	GH_z	GH_yy	EL_x	PS_y
       0.0               -25.6          9.496          15.94          68.74         -10.81         -8.962         -25.38          82.45          160.1          131.1          148.8
   0.02123               -25.6          9.499          15.94          68.74         -10.81         -8.962         -25.39          82.44          160.1          131.1          148.8
   0.04246              -25.61          9.503          15.94          68.73         -10.81         -8.962          -25.4          82.43          160.0          131.1          148.8
   0.06369              -25.61          9.506          15.94          68.73          -10.8         -8.961         -25.41          82.41          160.0          131.1          148.8
   0.08492              -25.62           9.51          15.94          68.73          -10.8         -8.961         -25.42           82.4          159.9          131.1          148.8
    0.1062              -25.62          9.514          15.94          68.72          -10.8         -8.961         -25.44          82.39          159.9          131.1          148.7
    0.1274              -25.63          9.518          15.95          68.72         -10.79         -8.961         -25.45          82.37          159.8          131.1          148.7
    0.1486              -25.64          9.523          15.95          68.72         -10.79          -8.96         -25.47          82.36          159.8          131.1          148.7
    0.1698              -25.64          9.528          15.95          68.71         -10.78          -8.96         -25.48          82.34          159.7          131.1          148.7
    0.1911              -25.65          9.533          15.95          68.71         -10.78          -8.96          -25.5          82.32          159.6          131.0          148.7
    0.2123              -25.66          9.539          15.95           68.7         -10.77         -8.959         -25.52           82.3          159.6          131.0          148.6
    0.2335              -25.67          9.545          15.95           68.7         -10.77         -8.959         -25.54          82.28          159.5          131.0          148.6
    0.2548              -25.68          9.552          15.95          68.69         -10.76         -8.959         -25.56          82.26          159.4          131.0          148.6
     0.276              -25.69          9.559          15.95          68.69         -10.76         -8.958         -25.59          82.23          159.3          131.0          148.6
    0.2972               -25.7          9.567          15.95          68.68         -10.75         -8.958         -25.61           82.2          159.2          131.0          148.5
    0.3185              -25.72          9.575          15.95          68.67         -10.74         -8.957         -25.64          82.18          159.1          131.0          148.5
    0.3397              -25.73          9.584          15.95          68.67         -10.73         -8.957         -25.67          82.14          159.0          131.0          148.5
    0.3609              -25.75          9.594          15.95          68.66         -10.73         -8.956          -25.7          82.11          158.9          131.0          148.4
    0.3822              -25.76          9.605          15.95          68.65         -10.72         -8.955         -25.74          82.07          158.7          130.9          148.4
    0.4034              -25.78          9.617          15.95          68.64          -10.7         -8.955         -25.78          82.03          158.6          130.9          148.4
    0.4246               -25.8           9.63          15.95          68.63         -10.69         -8.954         -25.82          81.99          158.4          130.9          148.3
